<svg aria-roledescription="er" role="graphics-document document" viewBox="0 0 340 86" style="max-width: 340px;" xmlns="http://www.w3.org/2000/svg" width="100%" id="merm-graph"><style>#merm-graph{font-family:"trebuchet ms",verdana,arial,sans-serif;font-size:16px;fill:#333;}#merm-graph .error-icon{fill:#552222;}#merm-graph .error-text{fill:#552222;stroke:#552222;}#merm-graph .edge-thickness-normal{stroke-width:2px;}#merm-graph .edge-thickness-thick{stroke-width:3.5px;}#merm-graph .edge-pattern-solid{stroke-dasharray:0;}#merm-graph .edge-pattern-dashed{stroke-dasharray:3;}#merm-graph .edge-pattern-dotted{stroke-dasharray:2;}#merm-graph .marker{fill:#333333;stroke:#333333;}#merm-graph .marker.cross{stroke:#333333;}#merm-graph svg{font-family:"trebuchet ms",verdana,arial,sans-serif;font-size:16px;}#merm-graph .entityBox{fill:#ECECFF;stroke:#9370DB;}#merm-graph .attributeBoxOdd{fill:#ffffff;stroke:#9370DB;}#merm-graph .attributeBoxEven{fill:#f2f2f2;stroke:#9370DB;}#merm-graph .relationshipLabelBox{fill:hsl(80, 100%, 96.2745098039%);opacity:0.7;background-color:hsl(80, 100%, 96.2745098039%);}#merm-graph .relationshipLabelBox rect{opacity:0.5;}#merm-graph .relationshipLine{stroke:#333333;}#merm-graph .entityTitleText{text-anchor:middle;font-size:18px;fill:#333;}#merm-graph #MD_PARENT_START{fill:#f5f5f5!important;stroke:#333333!important;stroke-width:1;}#merm-graph #MD_PARENT_END{fill:#f5f5f5!important;stroke:#333333!important;stroke-width:1;}#merm-graph :root{--mermaid-font-family:"trebuchet ms",verdana,arial,sans-serif;}</style><g></g><defs><marker orient="auto" markerHeight="240" markerWidth="190" refY="7" refX="0" id="MD_PARENT_START"><path d="M 18,7 L9,13 L1,7 L9,1 Z"></path></marker></defs><defs><marker orient="auto" markerHeight="28" markerWidth="20" refY="7" refX="19" id="MD_PARENT_END"><path d="M 18,7 L9,13 L1,7 L9,1 Z"></path></marker></defs><defs><marker orient="auto" markerHeight="18" markerWidth="18" refY="9" refX="0" id="ONLY_ONE_START"><path d="M9,0 L9,18 M15,0 L15,18" fill="none" stroke="gray"></path></marker></defs><defs><marker orient="auto" markerHeight="18" markerWidth="18" refY="9" refX="18" id="ONLY_ONE_END"><path d="M3,0 L3,18 M9,0 L9,18" fill="none" stroke="gray"></path></marker></defs><defs><marker orient="auto" markerHeight="18" markerWidth="30" refY="9" refX="0" id="ZERO_OR_ONE_START"><circle r="6" cy="9" cx="21" fill="white" stroke="gray"></circle><path d="M9,0 L9,18" fill="none" stroke="gray"></path></marker></defs><defs><marker orient="auto" markerHeight="18" markerWidth="30" refY="9" refX="30" id="ZERO_OR_ONE_END"><circle r="6" cy="9" cx="9" fill="white" stroke="gray"></circle><path d="M21,0 L21,18" fill="none" stroke="gray"></path></marker></defs><defs><marker orient="auto" markerHeight="36" markerWidth="45" refY="18" refX="18" id="ONE_OR_MORE_START"><path d="M0,18 Q 18,0 36,18 Q 18,36 0,18 M42,9 L42,27" fill="none" stroke="gray"></path></marker></defs><defs><marker orient="auto" markerHeight="36" markerWidth="45" refY="18" refX="27" id="ONE_OR_MORE_END"><path d="M3,9 L3,27 M9,18 Q27,0 45,18 Q27,36 9,18" fill="none" stroke="gray"></path></marker></defs><defs><marker orient="auto" markerHeight="36" markerWidth="57" refY="18" refX="18" id="ZERO_OR_MORE_START"><circle r="6" cy="18" cx="48" fill="white" stroke="gray"></circle><path d="M0,18 Q18,0 36,18 Q18,36 0,18" fill="none" stroke="gray"></path></marker></defs><defs><marker orient="auto" markerHeight="36" markerWidth="57" refY="18" refX="39" id="ZERO_OR_MORE_END"><circle r="6" cy="18" cx="9" fill="white" stroke="gray"></circle><path d="M21,18 Q39,0 57,18 Q39,36 21,18" fill="none" stroke="gray"></path></marker></defs><g transform="translate(20,20 )" id="entity-Client-89ba4e64-b52f-5095-8d5c-caea66804388"><rect height="46" width="100" y="0" x="0" class="er entityBox"></rect><text style="dominant-baseline: middle; text-anchor: middle; font-size: 12px;" transform="translate(50,12)" y="0" x="0" id="text-entity-Client-89ba4e64-b52f-5095-8d5c-caea66804388" class="er entityLabel">Client</text><rect height="22" width="25.474934895833332" y="24" x="0" class="er attributeBoxOdd"></rect><text style="dominant-baseline: middle; font-size: 10.2px;" transform="translate(5,35)" y="0" x="0" id="text-entity-Client-89ba4e64-b52f-5095-8d5c-caea66804388-attr-1-type" class="er entityLabel">int</text><rect height="22" width="48.11052449544271" y="24" x="25.474934895833332" class="er attributeBoxOdd"></rect><text style="dominant-baseline: middle; font-size: 10.2px;" transform="translate(30.474934895833332,35)" y="0" x="0" id="text-entity-Client-89ba4e64-b52f-5095-8d5c-caea66804388-attr-1-name" class="er entityLabel">ClientID</text><rect height="22" width="26.414540608723957" y="24" x="73.58545939127605" class="er attributeBoxOdd"></rect><text style="dominant-baseline: middle; font-size: 10.2px;" transform="translate(78.58545939127605,35)" y="0" x="0" id="text-entity-Client-89ba4e64-b52f-5095-8d5c-caea66804388-attr-1-key" class="er entityLabel">PK</text></g><g transform="translate(220,20 )" id="entity-Product-8913f459-c6e1-5923-8b2e-55129fac4b99"><rect height="46" width="100" y="0" x="0" class="er entityBox"></rect><text style="dominant-baseline: middle; text-anchor: middle; font-size: 12px;" transform="translate(50,12)" y="0" x="0" id="text-entity-Product-8913f459-c6e1-5923-8b2e-55129fac4b99" class="er entityLabel">Product</text><rect height="22" width="22.2978515625" y="24" x="0" class="er attributeBoxOdd"></rect><text style="dominant-baseline: middle; font-size: 10.2px;" transform="translate(5,35)" y="0" x="0" id="text-entity-Product-8913f459-c6e1-5923-8b2e-55129fac4b99-attr-1-type" class="er entityLabel">int</text><rect height="22" width="54.464691162109375" y="24" x="22.2978515625" class="er attributeBoxOdd"></rect><text style="dominant-baseline: middle; font-size: 10.2px;" transform="translate(27.2978515625,35)" y="0" x="0" id="text-entity-Product-8913f459-c6e1-5923-8b2e-55129fac4b99-attr-1-name" class="er entityLabel">ProductID</text><rect height="22" width="23.237457275390625" y="24" x="76.76254272460938" class="er attributeBoxOdd"></rect><text style="dominant-baseline: middle; font-size: 10.2px;" transform="translate(81.76254272460938,35)" y="0" x="0" id="text-entity-Product-8913f459-c6e1-5923-8b2e-55129fac4b99-attr-1-key" class="er entityLabel">PK</text></g></svg>